<svg width="192" height="192" viewBox="0 0 192 192" fill="none" xmlns="http://www.w3.org/2000/svg">
<rect width="192" height="192" rx="10" fill="#0B0A0A"/>
<path d="M105.259 152.591V114.366H104.889C103.904 116.767 102.489 118.921 100.642 120.83C98.8262 122.707 96.6103 124.2 93.9943 125.308C91.4091 126.385 88.4545 126.923 85.1307 126.923C80.0833 126.923 75.4361 125.6 71.1889 122.953C66.9725 120.306 63.5871 116.29 61.0327 110.904C58.509 105.518 57.2472 98.732 57.2472 90.5455C57.2472 81.9896 58.5705 75.0341 61.2173 69.679C63.8949 64.3239 67.3419 60.3999 71.5582 57.907C75.8054 55.4141 80.268 54.1676 84.946 54.1676C88.4545 54.1676 91.5322 54.7831 94.179 56.0142C96.8258 57.2145 99.0417 58.8303 100.827 60.8615C102.612 62.862 103.966 65.0625 104.889 67.4631H105.443V55.0909H130.741V152.591H105.259ZM94.5483 107.349C96.8873 107.349 98.8878 106.672 100.55 105.318C102.242 103.933 103.535 101.994 104.428 99.5014C105.351 96.9777 105.812 93.9924 105.812 90.5455C105.812 87.0369 105.351 84.0362 104.428 81.5433C103.535 79.0196 102.242 77.0961 100.55 75.7727C98.8878 74.4186 96.8873 73.7415 94.5483 73.7415C92.2093 73.7415 90.2088 74.4186 88.5469 75.7727C86.9157 77.0961 85.6539 79.0196 84.7614 81.5433C83.8996 84.0362 83.4688 87.0369 83.4688 90.5455C83.4688 94.054 83.8996 97.0701 84.7614 99.5938C85.6539 102.087 86.9157 104.01 88.5469 105.364C90.2088 106.688 92.2093 107.349 94.5483 107.349Z" fill="#F59E0B"/>
</svg>
